<svg xmlns="http://www.w3.org/2000/svg" width="18" height="18" viewBox="0 0 18 18"><defs><style>.a{fill:#fff;opacity:0.5;}</style></defs><path class="a" d="M11.589,9.288a.4.4,0,0,1,0-.575l6.164-6.164A.888.888,0,0,0,18,1.973a.888.888,0,0,0-.247-.575L16.6.247A.888.888,0,0,0,16.027,0a.746.746,0,0,0-.575.247L9.288,6.411a.4.4,0,0,1-.575,0L2.548.247A.888.888,0,0,0,1.973,0,.888.888,0,0,0,1.4.247L.247,1.4A.888.888,0,0,0,0,1.973a.888.888,0,0,0,.247.575L6.411,8.712a.4.4,0,0,1,0,.575L.247,15.452a.795.795,0,0,0,0,1.151L1.4,17.753A.888.888,0,0,0,1.973,18a.888.888,0,0,0,.575-.247l6.164-6.164a.4.4,0,0,1,.575,0l6.164,6.164a.795.795,0,0,0,1.151,0L17.753,16.6a.795.795,0,0,0,0-1.151Z"/></svg>