<svg xmlns="http://www.w3.org/2000/svg" width="13.555" height="12.422" viewBox="0 0 13.555 12.422"><defs><style>.a{fill:#ffce00;}</style></defs><path class="a" d="M12.761,442.772h-.743v-.538H1.524v.538H.794v-.5H0v1.8H.794v-.5h.73v.5H12.018v-.5h.743v.5h.794v-1.8h-.794Zm0,0" transform="translate(0 -431.646)"/><path class="a" d="M82.418,100.855l.646.711-.646.616V106.4H91.6v-1.965l-.428-.467.428-.7V99.234H82.418Zm6.59,1.574h-.838v-.686h.838Zm-4-2.15h4v.686h-4Zm0,1.464H87.65v.686H85.006Zm0,1.464h4v.686h-4Zm0,1.464h4v.686h-4Zm0,0" transform="translate(-80.236 -96.607)"/><path class="a" d="M12.761,0V.5h-.743V0H1.524V.5H.794V0H0V1.8H.794V1.3h.73v.538H12.018V1.3h.743v.5h.794V0Zm0,0"/></svg>