<svg xmlns="http://www.w3.org/2000/svg" xmlns:xlink="http://www.w3.org/1999/xlink" width="70" height="70" viewBox="0 0 70 70"><defs><style>.a{fill:#fff;opacity:0.462;}.b{clip-path:url(#a);}.c{fill:#96ffeb;}.d{filter:url(#b);}</style><clipPath id="a"><rect class="a" width="70" height="70"/></clipPath><filter id="b" x="9.296" y="9.296" width="50.031" height="50.001" filterUnits="userSpaceOnUse"><feOffset input="SourceAlpha"/><feGaussianBlur stdDeviation="2" result="c"/><feFlood flood-color="#96ffeb"/><feComposite operator="in" in2="c"/><feComposite in="SourceGraphic"/></filter></defs><g class="b"><g transform="translate(15.296 15.296)"><g transform="translate(0 0)"><g class="d" transform="matrix(1, 0, 0, 1, -15.3, -15.3)"><path class="c" d="M38.031,24.658V4.4a4.4,4.4,0,0,0-4.4-4.4H4.4A4.4,4.4,0,0,0,0,4.4v20.26a4.4,4.4,0,0,0,4.4,4.4H18.956a.252.252,0,0,0,.081.062l18.626,8.859a.242.242,0,0,0,.31-.347L32.63,29.055h1A4.4,4.4,0,0,0,38.031,24.658ZM27.349,7.193l-1.6,4.922-.107.329-.084-.259L23.473,5.765l-.051-.152h1.065A3.37,3.37,0,0,1,27.349,7.193ZM13.476,5.61h1.065l-.05.152-2.085,6.424-.084.259-.107-.329-1.6-4.922A3.373,3.373,0,0,1,13.476,5.61Zm0,17.762a3.373,3.373,0,0,1-2.861-1.583l1.6-4.923.107-.329.084.259,2.086,6.421.05.152ZM18.982,5.61h4.44l-.11.211-2.1,3.992-.013.025L18.982,5.61l-2.22,4.224-.013-.025-2.1-3.989-.111-.211Zm0,17.762h-4.44l.111-.211,2.1-3.989.013-.024,2.22,4.224,2.22-4.224.013.024,2.1,3.989.11.21Zm5.507,0H23.424l.051-.152L25.557,16.8l.084-.259.107.329,1.6,4.923a3.371,3.371,0,0,1-2.853,1.583Z" transform="translate(15.3 15.3)"/></g></g></g></g></svg>